<?xml version="1.0" encoding="UTF-8" standalone="no"?>
<svg
   xmlns:dc="http://purl.org/dc/elements/1.1/"
   xmlns:cc="http://creativecommons.org/ns#"
   xmlns:rdf="http://www.w3.org/1999/02/22-rdf-syntax-ns#"
   xmlns:svg="http://www.w3.org/2000/svg"
   xmlns="http://www.w3.org/2000/svg"
   xmlns:xlink="http://www.w3.org/1999/xlink"
   xmlns:sodipodi="http://sodipodi.sourceforge.net/DTD/sodipodi-0.dtd"
   xmlns:inkscape="http://www.inkscape.org/namespaces/inkscape"
   style="enable-background:new"
   height="576"
   width="507.40201"
   version="1.1"
   viewBox="0 0 126.8505 575.99998"
   id="svg4155"
   inkscape:version="0.91 r13725"
   sodipodi:docname="ipfs-wikidata-logo-only.svg">
  <metadata
     id="metadata4181">
    <rdf:RDF>
      <cc:Work
         rdf:about="">
        <dc:format>image/svg+xml</dc:format>
        <dc:type
           rdf:resource="http://purl.org/dc/dcmitype/StillImage" />
        <dc:title></dc:title>
      </cc:Work>
    </rdf:RDF>
  </metadata>
  <sodipodi:namedview
     pagecolor="#ffffff"
     bordercolor="#666666"
     borderopacity="1"
     objecttolerance="10"
     gridtolerance="10"
     guidetolerance="10"
     inkscape:pageopacity="0"
     inkscape:pageshadow="2"
     inkscape:window-width="1918"
     inkscape:window-height="1078"
     id="namedview4179"
     showgrid="false"
     showguides="true"
     inkscape:guide-bbox="true"
     fit-margin-top="32"
     fit-margin-left="32"
     fit-margin-right="32"
     fit-margin-bottom="32"
     inkscape:zoom="0.61319416"
     inkscape:cx="582.04772"
     inkscape:cy="256.00375"
     inkscape:window-x="0"
     inkscape:window-y="0"
     inkscape:window-maximized="0"
     inkscape:current-layer="svg4155" />
  <defs
     id="defs4157">
    <linearGradient
       id="b"
       y2="771.51001"
       gradientUnits="userSpaceOnUse"
       x2="527.71997"
       y1="771.51001"
       x1="84.315002"
       gradientTransform="translate(-242.59076,-483.51)">
      <stop
         stop-color="#4a9ea1"
         offset="0"
         id="stop4160" />
    </linearGradient>
    <linearGradient
       id="a"
       y2="771.47998"
       gradientUnits="userSpaceOnUse"
       x2="512.35999"
       y1="771.47998"
       x1="99.675003"
       gradientTransform="translate(-50.017,-515.51)">
      <stop
         stop-color="#63d3d7"
         offset="0"
         id="stop4163" />
    </linearGradient>
    <clipPath
       clipPathUnits="userSpaceOnUse"
       id="clipPath4233">
      <path
         d="M 481.86103,73.454055 168.05696,164.16792 c 0.62718,2.78996 0.62716,5.60591 0,8.39577 l 313.8236,90.71387 c 26.46074,-9.77555 62.55582,-9.77555 89.01657,0 l 313.82359,-90.71485 c -0.62718,-2.78995 -0.63044,-5.60454 -0.002,-8.3944 L 570.9147,73.454446 c -26.46075,9.775547 -62.55778,9.775547 -89.02048,0 z M 914.84974,197.62041 600.69427,289.34496 c 3.67803,16.36165 -14.37068,32.01269 -44.50927,38.5988 l 0.35262,180.419 c 5.13929,1.123 10.00858,2.53024 14.5208,4.1972 l 313.8236,-90.71289 c -3.67803,-16.36165 14.37068,-32.01367 44.50926,-38.59978 l 0,-181.42577 c -5.13929,-1.123 -10.01131,-2.53025 -14.52354,-4.1972 z m -776.6231,1.00824 c -4.51203,1.66696 -9.38132,3.07557 -14.52081,4.19857 l 0,181.42578 c 30.13878,6.58591 48.1873,22.23714 44.50927,38.5988 l 313.80407,90.71386 c 4.51203,-1.66695 9.38425,-3.07557 14.52354,-4.19857 l 0,-181.42577 c -30.13878,-6.58591 -48.1873,-22.23715 -44.50927,-38.5988 L 138.22937,198.62474 Z"
         id="path4235"
         style="fill:url(#linearGradient4237)"
         inkscape:connector-curvature="0" />
    </clipPath>
    <linearGradient
       inkscape:collect="always"
       xlink:href="#a"
       id="linearGradient4237"
       gradientUnits="userSpaceOnUse"
       gradientTransform="matrix(1.9522463,0,0,0.97745691,-70.878461,-460.57953)"
       x1="99.675003"
       y1="771.47998"
       x2="512.35999"
       y2="771.47998" />
    <linearGradient
       inkscape:collect="always"
       xlink:href="#a"
       id="linearGradient4284"
       gradientUnits="userSpaceOnUse"
       gradientTransform="translate(-242.59076,-483.51)"
       x1="99.675003"
       y1="771.47998"
       x2="512.35999"
       y2="771.47998" />
  </defs>
  <path
     inkscape:connector-curvature="0"
     style="fill:url(#b)"
     id="path4167"
     d="M -158.27576,416 63.424243,544 285.12424,416 l 0,-256 L 63.424243,32.009996 -158.27576,160.01 Z" />
  <path
     inkscape:connector-curvature="0"
     style="fill:url(#linearGradient4284)"
     id="path4169"
     d="M 40.539243,62.839996 -120.20076,155.646 c 0.32126,2.8543 0.32125,5.7352 0,8.5894 l 160.750003,92.806 c 13.554,-10.001 32.043,-10.001 45.597,0 l 160.749997,-92.807 c -0.32126,-2.8543 -0.32293,-5.7338 -0.001,-8.588 L 86.155243,62.840396 c -13.554,10.001 -32.044,10.001 -45.599,0 z M 262.32924,189.87 l -160.92,93.84 c 1.884,16.739 -7.361097,32.751 -22.798997,39.489 l 0.18062,184.58 c 2.6325,1.1489 5.1267,2.5886 7.438,4.294 L 246.97886,419.268 c -1.884,-16.739 7.3611,-32.752 22.799,-39.49 l 0,-185.61 c -2.6325,-1.1489 -5.1281,-2.5886 -7.4394,-4.294 z m -397.81,1.0315 c -2.3112,1.7054 -4.8054,3.1465 -7.438,4.2954 l 0,185.61 c 15.438,6.7378 24.683,22.75 22.799,39.489 l 160.740003,92.806 c 2.3112,-1.7054 4.8069,-3.1465 7.4394,-4.2954 l 0,-185.61 c -15.438,-6.7378 -24.683,-22.75 -22.799,-39.489 l -160.740003,-92.81 z" />
  <g
     id="wikidata"
     transform="matrix(0.51223045,0,0,1.023063,-206.28465,-12.30813)"
     clip-path="url(#clipPath4233)">
    <path
       id="path4204"
       style="fill:#990000"
       d="m 120,545 30,0 0,-500 -30,0 0,500 z m 60,0 90,0 0,-500 -90,0 0,500 z m 120,-500 0,500 90,0 0,-500 -90,0 z"
       inkscape:connector-curvature="0" />
    <path
       id="path4206"
       style="fill:#339966"
       d="m 840,545 30,0 0,-500 -30,0 0,500 z m 60,-500 0,500 30,0 0,-500 -30,0 z m -480,500 30,0 0,-500 -30,0 0,500 z m 60,-500 0,500 30,0 0,-500 -30,0 z"
       inkscape:connector-curvature="0" />
    <path
       id="path4208"
       style="fill:#006699"
       d="m 540,545 90,0 0,-500 -90,0 0,500 z m 120,0 30,0 0,-500 -30,0 0,500 z m 60,-500 0,500 90,0 0,-500 -90,0 z"
       inkscape:connector-curvature="0" />
  </g>
  <g
     transform="translate(-192.57376,-164.66)"
     id="g4171">
    <path
       d="m 256,708.66 221.7,-128 0,-256 -221.7,128 0,256 z"
       id="path4173"
       inkscape:connector-curvature="0"
       style="fill-opacity:0.25097997" />
    <path
       d="m 256,708.66 0,-256 -221.7,-128 0,256 221.7,128 z"
       id="path4175"
       inkscape:connector-curvature="0"
       style="fill-opacity:0.03921599" />
    <path
       d="m 34.298,324.66 221.7,128 221.7,-128 -221.7,-128 -221.7,128 z"
       id="path4177"
       inkscape:connector-curvature="0"
       style="fill-opacity:0.13018003" />
  </g>
</svg>
