<?xml version="1.0" encoding="UTF-8" standalone="no"?>
<svg
   xmlns:dc="http://purl.org/dc/elements/1.1/"
   xmlns:cc="http://creativecommons.org/ns#"
   xmlns:rdf="http://www.w3.org/1999/02/22-rdf-syntax-ns#"
   xmlns:svg="http://www.w3.org/2000/svg"
   xmlns="http://www.w3.org/2000/svg"
   xmlns:xlink="http://www.w3.org/1999/xlink"
   xmlns:sodipodi="http://sodipodi.sourceforge.net/DTD/sodipodi-0.dtd"
   xmlns:inkscape="http://www.inkscape.org/namespaces/inkscape"
   style="enable-background:new"
   height="576"
   width="1356.6367"
   version="1.1"
   viewBox="0 0 339.15917 575.99998"
   id="svg4155"
   inkscape:version="0.91 r13725"
   sodipodi:docname="ipfs-wikidata-logo.svg">
  <metadata
     id="metadata4181">
    <rdf:RDF>
      <cc:Work
         rdf:about="">
        <dc:format>image/svg+xml</dc:format>
        <dc:type
           rdf:resource="http://purl.org/dc/dcmitype/StillImage" />
        <dc:title></dc:title>
      </cc:Work>
    </rdf:RDF>
  </metadata>
  <sodipodi:namedview
     pagecolor="#ffffff"
     bordercolor="#666666"
     borderopacity="1"
     objecttolerance="10"
     gridtolerance="10"
     guidetolerance="10"
     inkscape:pageopacity="0"
     inkscape:pageshadow="2"
     inkscape:window-width="1918"
     inkscape:window-height="1078"
     id="namedview4179"
     showgrid="false"
     showguides="true"
     inkscape:guide-bbox="true"
     fit-margin-top="32"
     fit-margin-left="32"
     fit-margin-right="32"
     fit-margin-bottom="32"
     inkscape:zoom="0.61319416"
     inkscape:cx="734.67787"
     inkscape:cy="256.00375"
     inkscape:window-x="0"
     inkscape:window-y="0"
     inkscape:window-maximized="0"
     inkscape:current-layer="svg4155" />
  <defs
     id="defs4157">
    <linearGradient
       id="b"
       y2="771.51001"
       gradientUnits="userSpaceOnUse"
       x2="527.71997"
       y1="771.51001"
       x1="84.315002"
       gradientTransform="translate(-561.05377,-483.51)">
      <stop
         stop-color="#4a9ea1"
         offset="0"
         id="stop4160" />
    </linearGradient>
    <linearGradient
       id="a"
       y2="771.47998"
       gradientUnits="userSpaceOnUse"
       x2="512.35999"
       y1="771.47998"
       x1="99.675003"
       gradientTransform="translate(-50.017,-515.51)">
      <stop
         stop-color="#63d3d7"
         offset="0"
         id="stop4163" />
    </linearGradient>
    <clipPath
       clipPathUnits="userSpaceOnUse"
       id="clipPath4233">
      <path
         d="M 481.86103,73.454055 168.05696,164.16792 c 0.62718,2.78996 0.62716,5.60591 0,8.39577 l 313.8236,90.71387 c 26.46074,-9.77555 62.55582,-9.77555 89.01657,0 l 313.82359,-90.71485 c -0.62718,-2.78995 -0.63044,-5.60454 -0.002,-8.3944 L 570.9147,73.454446 c -26.46075,9.775547 -62.55778,9.775547 -89.02048,0 z M 914.84974,197.62041 600.69427,289.34496 c 3.67803,16.36165 -14.37068,32.01269 -44.50927,38.5988 l 0.35262,180.419 c 5.13929,1.123 10.00858,2.53024 14.5208,4.1972 l 313.8236,-90.71289 c -3.67803,-16.36165 14.37068,-32.01367 44.50926,-38.59978 l 0,-181.42577 c -5.13929,-1.123 -10.01131,-2.53025 -14.52354,-4.1972 z m -776.6231,1.00824 c -4.51203,1.66696 -9.38132,3.07557 -14.52081,4.19857 l 0,181.42578 c 30.13878,6.58591 48.1873,22.23714 44.50927,38.5988 l 313.80407,90.71386 c 4.51203,-1.66695 9.38425,-3.07557 14.52354,-4.19857 l 0,-181.42577 c -30.13878,-6.58591 -48.1873,-22.23715 -44.50927,-38.5988 L 138.22937,198.62474 Z"
         id="path4235"
         style="fill:url(#linearGradient4237)"
         inkscape:connector-curvature="0" />
    </clipPath>
    <linearGradient
       inkscape:collect="always"
       xlink:href="#a"
       id="linearGradient4237"
       gradientUnits="userSpaceOnUse"
       gradientTransform="matrix(1.9522463,0,0,0.97745691,-70.878461,-460.57953)"
       x1="99.675003"
       y1="771.47998"
       x2="512.35999"
       y2="771.47998" />
    <linearGradient
       inkscape:collect="always"
       xlink:href="#a"
       id="linearGradient4284"
       gradientUnits="userSpaceOnUse"
       gradientTransform="translate(-561.05377,-483.51)"
       x1="99.675003"
       y1="771.47998"
       x2="512.35999"
       y2="771.47998" />
  </defs>
  <path
     inkscape:connector-curvature="0"
     style="fill:url(#b)"
     id="path4167"
     d="m -476.73877,416 221.7,128 221.7,-128 0,-256 -221.7,-127.990004 -221.7,128.000004 z" />
  <path
     inkscape:connector-curvature="0"
     style="fill:url(#linearGradient4284)"
     id="path4169"
     d="m -277.92377,62.839996 -160.74,92.806004 c 0.32126,2.8543 0.32125,5.7352 0,8.5894 l 160.75,92.806 c 13.554,-10.001 32.043,-10.001 45.597,0 l 160.75,-92.807 c -0.32126,-2.8543 -0.32293,-5.7338 -10e-4,-8.588 l -160.74,-92.806004 c -13.554,10.001 -32.044,10.001 -45.599,0 z m 221.79,127.030004 -160.92,93.84 c 1.884,16.739 -7.3611,32.751 -22.799,39.489 l 0.18062,184.58 c 2.6325,1.1489 5.1267,2.5886 7.438,4.294 l 160.75,-92.805 c -1.884,-16.739 7.3611,-32.752 22.799,-39.49 l 0,-185.61 c -2.6325,-1.1489 -5.1281,-2.5886 -7.4394,-4.294 z m -397.81,1.0315 c -2.3112,1.7054 -4.8054,3.1465 -7.438,4.2954 l 0,185.61 c 15.438,6.7378 24.683,22.75 22.799,39.489 l 160.74,92.806 c 2.3112,-1.7054 4.8069,-3.1465 7.4394,-4.2954 l 0,-185.61 c -15.438,-6.7378 -24.683,-22.75 -22.799,-39.489 l -160.74,-92.81 z" />
  <g
     id="wikidata"
     transform="matrix(0.51223045,0,0,1.023063,-524.74766,-12.30813)"
     clip-path="url(#clipPath4233)">
    <path
       id="path4204"
       style="fill:#990000"
       d="m 120,545 30,0 0,-500 -30,0 0,500 z m 60,0 90,0 0,-500 -90,0 0,500 z m 120,-500 0,500 90,0 0,-500 -90,0 z"
       inkscape:connector-curvature="0" />
    <path
       id="path4206"
       style="fill:#339966"
       d="m 840,545 30,0 0,-500 -30,0 0,500 z m 60,-500 0,500 30,0 0,-500 -30,0 z m -480,500 30,0 0,-500 -30,0 0,500 z m 60,-500 0,500 30,0 0,-500 -30,0 z"
       inkscape:connector-curvature="0" />
    <path
       id="path4208"
       style="fill:#006699"
       d="m 540,545 90,0 0,-500 -90,0 0,500 z m 120,0 30,0 0,-500 -30,0 0,500 z m 60,-500 0,500 90,0 0,-500 -90,0 z"
       inkscape:connector-curvature="0" />
  </g>
  <g
     transform="translate(-511.03677,-164.66)"
     id="g4171">
    <path
       d="m 256,708.66 221.7,-128 0,-256 -221.7,128 0,256 z"
       id="path4173"
       inkscape:connector-curvature="0"
       style="fill-opacity:0.25097997" />
    <path
       d="m 256,708.66 0,-256 -221.7,-128 0,256 221.7,128 z"
       id="path4175"
       inkscape:connector-curvature="0"
       style="fill-opacity:0.03921599" />
    <path
       d="m 34.298,324.66 221.7,128 221.7,-128 -221.7,-128 -221.7,128 z"
       id="path4177"
       inkscape:connector-curvature="0"
       style="fill-opacity:0.13018003" />
  </g>
  <path
     inkscape:connector-curvature="0"
     d="m 769.88233,311.29635 46.0156,103.68359 -27.7578,0 -8.5351,-20.48438 -46.3867,0 -7.7188,20.48438 -27.3867,0 41.7851,-103.68359 29.9844,0 m 2.0781,65.08984 -16.6992,-40.30078 -15.2148,40.30078 31.914,0 m -60.2656,-65.08984 0,19 -37.5547,0 0,84.68359 -25.8281,0 0,-84.68359 -37.55468,0 0,-19 100.93748,0 m -133.59373,0 46.01562,103.68359 -27.75781,0 -8.53516,-20.48438 -46.38672,0 -7.71875,20.48438 -27.38672,0 41.78516,-103.68359 29.98438,0 m 2.07812,65.08984 -16.69922,-40.30078 -15.21484,40.30078 31.91406,0 m -176.56641,-65.08984 45.71875,0 c 17.66399,10e-5 31.6171,4.84905 41.85938,14.54687 10.29156,9.64852 15.43739,22.142 15.4375,37.48047 -1.1e-4,16.08076 -5.22016,28.72268 -15.66016,37.92578 -10.39071,9.15365 -25.23444,13.73047 -44.53125,13.73047 l -42.82422,0 0,-103.68359 m 25.82813,19 0,65.68359 16.84766,0 c 10.93483,2e-5 19.2968,-2.99347 25.08593,-8.98047 5.78898,-6.03642 8.68351,-13.97782 8.6836,-23.82422 -9e-5,-10.19264 -2.9441,-18.20826 -8.83203,-24.04687 -5.83862,-5.88794 -14.25007,-8.83195 -25.23438,-8.83203 l -16.55078,0 m -49.72656,-19 0,103.68359 -25.82813,0 0,-103.68359 25.82813,0 m -48.91016,0 -33.76953,48.6875 45.79297,54.99609 -32.35938,0 -41.04297,-48.61328 0,48.61328 -25.82812,0 0,-103.68359 25.82812,0 0,46.68359 32.95313,-46.68359 28.42578,0 m -111.10547,0 0,103.68359 -25.82812,0 0,-103.68359 25.82812,0 m -127.21094,37.40625 -32.0625,67.61328 -11.13281,0 -45.5703095,-105.01953 27.3867195,0 24.41797,57.29687 26.64453,-57.29687 20.78125,0 26.64453,57.29687 24.26953,-57.29687 27.38672,0 -45.42188,105.01953 -11.13281,0 -32.21094,-67.61328"
     style="font-family:'Gill Sans MT';fill:#484848;fill-opacity:1;stroke:none"
     id="path4266" />
  <g
     id="g4307"
     transform="matrix(0.46784124,0,0,0.46784124,-199.42064,-174.58427)">
    <g
       id="g4309">
      <path
         id="path4311"
         d="m 1029.8,713.16 -30.1,0 0,255.5 30.1,0 0,-255.5 z"
         inkscape:connector-curvature="0" />
      <path
         id="path4313"
         d="m 1161.3,835.66 c -11.55,0 -44.45,-0.35 -44.45,-0.35 l 0,-95.2 52.85,0 c 31.5,0 54.25,12.25 54.25,42.35 0,25.55 -4.55,53.2 -62.65,53.2 z m -44.45,133 0,-109.2 c 12.95,1.05 31.15,2.45 41.65,2.45 75.6,0 96.25,-32.55 96.25,-80.15 0,-49.35 -37.1,-68.6 -85.75,-68.6 l -82.6,0 0,255.5 30.45,0 z"
         inkscape:connector-curvature="0" />
      <path
         id="path4315"
         d="m 1422.7,825.51 -105.35,0 0,-86.1 108.85,0 2.45,-26.25 -141.4,0 0,255.5 30.1,0 0,-118.65 105.35,0 0,-24.5 z"
         inkscape:connector-curvature="0" />
      <path
         id="path4317"
         d="m 1464.9,927.01 c 22.75,11.2 52.15,19.6 84.7,19.6 36.4,0 55.65,-16.1 55.65,-50.75 0,-20.65 -8.4,-34.65 -40.95,-42.7 l -50.4,-12.6 c -35.35,-8.75 -57.4,-27.65 -57.4,-61.6 0,-49.7 37.1,-71.05 93.1,-71.05 31.15,0 59.15,7.7 76.65,18.55 l -8.75,23.8 c -13.65,-7.35 -40.6,-16.1 -68.25,-16.1 -40.6,0 -61.95,13.65 -61.95,43.05 0,19.95 13.3,30.8 37.8,36.75 l 47.95,11.55 c 38.15,9.1 62.65,27.65 62.65,69.3 0,53.2 -35.7,77.7 -87.85,77.7 -44.45,0 -76.3,-11.55 -91.7,-21 l 8.75,-24.5 z"
         inkscape:connector-curvature="0" />
    </g>
  </g>
</svg>
